<svg width="220" height="40" viewBox="0 0 220 40" fill="none" xmlns="http://www.w3.org/2000/svg">
<path d="M11.732 33.448C9.66 33.448 7.79333 33.0187 6.132 32.16C4.47067 31.2827 3.164 30.0693 2.212 28.52C1.27867 26.952 0.812 25.1787 0.812 23.2C0.812 21.2213 1.27867 19.4573 2.212 17.908C3.164 16.34 4.47067 15.1267 6.132 14.268C7.79333 13.3907 9.66 12.952 11.732 12.952C13.636 12.952 15.3347 13.288 16.828 13.96C18.3213 14.632 19.5533 15.6027 20.524 16.872L16.352 20.596C15.1387 19.0653 13.7107 18.3 12.068 18.3C10.6867 18.3 9.576 18.748 8.736 19.644C7.896 20.5213 7.476 21.7067 7.476 23.2C7.476 24.6933 7.896 25.888 8.736 26.784C9.576 27.6613 10.6867 28.1 12.068 28.1C13.7107 28.1 15.1387 27.3347 16.352 25.804L20.524 29.528C19.5533 30.7973 18.3213 31.768 16.828 32.44C15.3347 33.112 13.636 33.448 11.732 33.448ZM38.6258 17.684V33H32.6058V31.74C31.6911 32.7667 30.2911 33.28 28.4058 33.28C27.0618 33.28 25.8204 32.9627 24.6818 32.328C23.5618 31.6747 22.6658 30.7413 21.9938 29.528C21.3404 28.3147 21.0138 26.9147 21.0138 25.328C21.0138 23.7413 21.3404 22.3507 21.9938 21.156C22.6658 19.9427 23.5618 19.0187 24.6818 18.384C25.8204 17.7307 27.0618 17.404 28.4058 17.404C30.1044 17.404 31.4018 17.8427 32.2978 18.72V17.684H38.6258ZM29.9178 28.352C30.6458 28.352 31.2431 28.0907 31.7098 27.568C32.1764 27.0267 32.4098 26.28 32.4098 25.328C32.4098 24.376 32.1764 23.6387 31.7098 23.116C31.2431 22.5933 30.6458 22.332 29.9178 22.332C29.1898 22.332 28.5924 22.5933 28.1258 23.116C27.6591 23.6387 27.4258 24.376 27.4258 25.328C27.4258 26.28 27.6591 27.0267 28.1258 27.568C28.5924 28.0907 29.1898 28.352 29.9178 28.352ZM47.4513 19.336C48.5713 18.048 50.2233 17.404 52.4073 17.404V23.004C51.9033 22.9293 51.4366 22.892 51.0073 22.892C48.8419 22.892 47.7593 23.9933 47.7593 26.196V33H41.4313V17.684H47.4513V19.336ZM71.0041 12.224V33H64.9841V31.74C64.0694 32.7667 62.6694 33.28 60.7841 33.28C59.4401 33.28 58.1987 32.9627 57.0601 32.328C55.9401 31.6747 55.0441 30.7413 54.3721 29.528C53.7187 28.3147 53.3921 26.9147 53.3921 25.328C53.3921 23.7413 53.7187 22.3507 54.3721 21.156C55.0441 19.9427 55.9401 19.0187 57.0601 18.384C58.1987 17.7307 59.4401 17.404 60.7841 17.404C62.4827 17.404 63.7801 17.8427 64.6761 18.72V12.224H71.0041ZM62.2961 28.352C63.0241 28.352 63.6214 28.0907 64.0881 27.568C64.5547 27.0267 64.7881 26.28 64.7881 25.328C64.7881 24.376 64.5547 23.6387 64.0881 23.116C63.6214 22.5933 63.0241 22.332 62.2961 22.332C61.5681 22.332 60.9707 22.5933 60.5041 23.116C60.0374 23.6387 59.8041 24.376 59.8041 25.328C59.8041 26.28 60.0374 27.0267 60.5041 27.568C60.9707 28.0907 61.5681 28.352 62.2961 28.352ZM73.8063 17.684H80.1343V33H73.8063V17.684ZM76.9703 16.452C75.8316 16.452 74.9076 16.1533 74.1983 15.556C73.5076 14.94 73.1623 14.1653 73.1623 13.232C73.1623 12.2987 73.5076 11.5333 74.1983 10.936C74.9076 10.32 75.8316 10.012 76.9703 10.012C78.1276 10.012 79.0516 10.3013 79.7423 10.88C80.4329 11.4587 80.7783 12.2053 80.7783 13.12C80.7783 14.0907 80.4329 14.8933 79.7423 15.528C79.0516 16.144 78.1276 16.452 76.9703 16.452ZM91.0311 33.28C89.3324 33.28 87.8017 32.944 86.4391 32.272C85.0951 31.5813 84.0404 30.6387 83.2751 29.444C82.5097 28.2307 82.1271 26.8587 82.1271 25.328C82.1271 23.7973 82.5097 22.4347 83.2751 21.24C84.0404 20.0267 85.0951 19.084 86.4391 18.412C87.8017 17.74 89.3324 17.404 91.0311 17.404C92.7484 17.404 94.2791 17.74 95.6231 18.412C96.9857 19.084 98.0404 20.0267 98.7871 21.24C99.5524 22.4347 99.9351 23.7973 99.9351 25.328C99.9351 26.8587 99.5524 28.2307 98.7871 29.444C98.0404 30.6387 96.9857 31.5813 95.6231 32.272C94.2791 32.944 92.7484 33.28 91.0311 33.28ZM91.0311 28.352C91.7591 28.352 92.3564 28.0907 92.8231 27.568C93.2897 27.0267 93.5231 26.28 93.5231 25.328C93.5231 24.376 93.2897 23.6387 92.8231 23.116C92.3564 22.5933 91.7591 22.332 91.0311 22.332C90.3031 22.332 89.7057 22.5933 89.2391 23.116C88.7724 23.6387 88.5391 24.376 88.5391 25.328C88.5391 26.28 88.7724 27.0267 89.2391 27.568C89.7057 28.0907 90.3031 28.352 91.0311 28.352ZM109.42 33.448C107.796 33.448 106.209 33.2707 104.66 32.916C103.129 32.5427 101.869 32.048 100.88 31.432L103.008 26.616C103.941 27.1573 104.986 27.596 106.144 27.932C107.301 28.2493 108.412 28.408 109.476 28.408C110.39 28.408 111.044 28.324 111.436 28.156C111.828 27.9693 112.024 27.6987 112.024 27.344C112.024 26.9333 111.762 26.6253 111.24 26.42C110.736 26.2147 109.896 25.9907 108.72 25.748C107.208 25.4307 105.948 25.0947 104.94 24.74C103.932 24.3667 103.054 23.7693 102.308 22.948C101.561 22.108 101.188 20.9787 101.188 19.56C101.188 18.328 101.533 17.208 102.224 16.2C102.914 15.192 103.941 14.3987 105.304 13.82C106.685 13.2413 108.356 12.952 110.316 12.952C111.66 12.952 112.976 13.1013 114.264 13.4C115.57 13.68 116.718 14.1 117.708 14.66L115.72 19.448C113.797 18.4773 111.977 17.992 110.26 17.992C108.561 17.992 107.712 18.4027 107.712 19.224C107.712 19.616 107.964 19.9147 108.468 20.12C108.972 20.3067 109.802 20.512 110.96 20.736C112.453 21.016 113.713 21.3427 114.74 21.716C115.766 22.0707 116.653 22.6587 117.4 23.48C118.165 24.3013 118.548 25.4213 118.548 26.84C118.548 28.072 118.202 29.192 117.512 30.2C116.821 31.1893 115.785 31.9827 114.404 32.58C113.041 33.1587 111.38 33.448 109.42 33.448ZM128.97 28.604C129.642 28.604 130.202 28.52 130.65 28.352C131.117 28.184 131.621 27.8947 132.162 27.484L135.466 30.816C133.935 32.4587 131.705 33.28 128.774 33.28C126.926 33.28 125.302 32.944 123.902 32.272C122.502 31.5813 121.419 30.6293 120.654 29.416C119.889 28.2027 119.506 26.84 119.506 25.328C119.506 23.7973 119.889 22.4347 120.654 21.24C121.419 20.0267 122.465 19.084 123.79 18.412C125.134 17.74 126.637 17.404 128.298 17.404C129.81 17.404 131.201 17.712 132.47 18.328C133.739 18.9253 134.747 19.8213 135.494 21.016C136.241 22.192 136.614 23.6013 136.614 25.244L126.142 27.26C126.609 28.156 127.551 28.604 128.97 28.604ZM128.326 21.716C127.598 21.716 127.001 21.9307 126.534 22.36C126.086 22.7893 125.815 23.424 125.722 24.264L130.622 23.312C130.454 22.8267 130.165 22.444 129.754 22.164C129.362 21.8653 128.886 21.716 128.326 21.716ZM149.251 17.404C151.136 17.404 152.648 17.9733 153.787 19.112C154.944 20.2507 155.523 21.968 155.523 24.264V33H149.195V25.356C149.195 23.6013 148.57 22.724 147.319 22.724C146.61 22.724 146.031 22.976 145.583 23.48C145.154 23.9653 144.939 24.74 144.939 25.804V33H138.611V17.684H144.631V19.196C145.228 18.5987 145.919 18.1507 146.703 17.852C147.487 17.5533 148.336 17.404 149.251 17.404ZM164.263 33.28C162.956 33.28 161.668 33.14 160.399 32.86C159.13 32.58 158.103 32.216 157.319 31.768L159.055 27.596C159.764 28.0253 160.604 28.3613 161.575 28.604C162.546 28.8467 163.488 28.968 164.403 28.968C165.131 28.968 165.635 28.912 165.915 28.8C166.214 28.6693 166.363 28.4827 166.363 28.24C166.363 27.9973 166.176 27.8293 165.803 27.736C165.448 27.6427 164.86 27.5493 164.039 27.456C162.788 27.3067 161.724 27.12 160.847 26.896C159.97 26.6533 159.195 26.196 158.523 25.524C157.87 24.852 157.543 23.8907 157.543 22.64C157.543 21.6507 157.842 20.764 158.439 19.98C159.036 19.196 159.923 18.5707 161.099 18.104C162.294 17.6373 163.722 17.404 165.383 17.404C166.54 17.404 167.67 17.516 168.771 17.74C169.891 17.9453 170.843 18.2533 171.627 18.664L169.891 22.836C168.547 22.0893 167.072 21.716 165.467 21.716C164.086 21.716 163.395 21.9587 163.395 22.444C163.395 22.6867 163.582 22.864 163.955 22.976C164.328 23.0693 164.916 23.1627 165.719 23.256C166.97 23.4053 168.024 23.6013 168.883 23.844C169.76 24.0867 170.526 24.544 171.179 25.216C171.851 25.888 172.187 26.8493 172.187 28.1C172.187 29.052 171.888 29.92 171.291 30.704C170.694 31.488 169.798 32.1133 168.603 32.58C167.408 33.0467 165.962 33.28 164.263 33.28ZM182.755 28.604C183.427 28.604 183.987 28.52 184.435 28.352C184.902 28.184 185.406 27.8947 185.947 27.484L189.251 30.816C187.72 32.4587 185.49 33.28 182.559 33.28C180.711 33.28 179.087 32.944 177.687 32.272C176.287 31.5813 175.204 30.6293 174.439 29.416C173.674 28.2027 173.291 26.84 173.291 25.328C173.291 23.7973 173.674 22.4347 174.439 21.24C175.204 20.0267 176.25 19.084 177.575 18.412C178.919 17.74 180.422 17.404 182.083 17.404C183.595 17.404 184.986 17.712 186.255 18.328C187.524 18.9253 188.532 19.8213 189.279 21.016C190.026 22.192 190.399 23.6013 190.399 25.244L179.927 27.26C180.394 28.156 181.336 28.604 182.755 28.604ZM182.111 21.716C181.383 21.716 180.786 21.9307 180.319 22.36C179.871 22.7893 179.6 23.424 179.507 24.264L184.407 23.312C184.239 22.8267 183.95 22.444 183.539 22.164C183.147 21.8653 182.671 21.716 182.111 21.716Z" fill="#171717"/>
<path d="M220 0H198.71V39.7419H220V0Z" fill="url(#paint0_linear_1_5)"/>
<defs>
<linearGradient id="paint0_linear_1_5" x1="206.5" y1="15.5" x2="220" y2="39.7419" gradientUnits="userSpaceOnUse">
<stop stop-color="#3B82F6"/>
<stop offset="1" stop-color="#8B5CF6"/>
</linearGradient>
</defs>
</svg>
