<?xml version="1.0" encoding="utf-8"?>
<!-- Generator: Adobe Illustrator 27.5.0, SVG Export Plug-In . SVG Version: 6.00 Build 0)  -->
<svg version="1.1" xmlns="http://www.w3.org/2000/svg" xmlns:xlink="http://www.w3.org/1999/xlink" x="0px" y="0px"
	 viewBox="0 0 500 500" style="enable-background:new 0 0 500 500;" xml:space="preserve">
<g id="BACKGROUND">
	<g>
		<path style="fill:#FFECEB;" d="M126.198,318.161c-16.462-3.723-31.939-12.055-40.983-24.505
			c-9.044-12.45-10.758-29.191-2.242-41.916c9.092-13.587,27.11-20.246,42.326-28.822c31.915-17.987,54.448-47.926,60.525-80.419
			c3.664-19.588,2.359-41.546,17.148-56.73c7.548-7.749,18.58-12.62,30.071-14.634c18.708-3.28,38.995,0.932,53.932,11.197
			c14.938,10.265,24.248,26.393,24.751,42.874c0.362,11.839,14.142,21.206,26.782,25.796c12.64,4.59,26.636,5.685,39.507,9.769
			c18.008,5.713,33.432,17.512,41.653,32.484c8.22,14.971,8.986,32.968,1.53,48.235c-12.272,25.127-42.895,38.995-65.26,58.245
			c-19.523,16.805-33.215,38.6-38.887,61.896c-2.518,10.346-3.62,21.279-9.864,30.372c-9.712,14.145-30.579,20.661-49.471,18.611
			c-18.892-2.05-35.835-11.37-49.583-22.747c-13.748-11.377-24.859-24.87-36.967-37.562
			C159.059,337.614,144.617,322.327,126.198,318.161z"/>
		<path style="fill:#ECECEC;" d="M320.907,385.166c20.808,10.929,47.945,6.817,65.971-8.265c18.026-15.082,26.85-39.75,24.641-63.15
			c-2.209-23.4-14.738-45.233-32.399-60.741c-8.523-7.484-18.432-13.87-24.305-23.575c-6.958-11.498-7.085-26.115-3.391-39.037
			c3.694-12.922,13.54-23.707,18.737-36.102c5.983-14.272,6.848-30.811,1.439-45.311c-5.409-14.499-17.272-26.663-31.964-31.525
			c-14.692-4.862-31.933-1.948-43.621,8.195c-5.798,5.031-10.237,11.66-16.746,15.729c-9.203,5.753-21.141,5.38-31.457,2.01
			s-19.511-9.401-28.998-14.673c-19.274-10.711-42.169-18.554-63.183-11.874c-17.98,5.716-31.617,21.686-37.317,39.671
			c-5.7,17.985-4.172,37.673,1.279,55.735c5.452,18.062,13.296,35.96,26.203,49.72c7.031,7.496,12.398,16.712,14.503,26.771
			c2.106,10.059,0.785,20.965-4.488,29.785c-4.699,7.86-12.137,13.644-18.051,20.637c-9.899,11.706-15.432,27.212-14.319,42.502
			c1.112,15.29,9.094,30.118,21.736,38.789c12.642,8.671,29.787,10.703,43.796,4.477c20.796-9.243,42.272-11.907,64.958-13.703
			C276.619,369.435,300.76,374.585,320.907,385.166z"/>
	</g>
</g>
<g id="OBJECTS">
	<g>
		<path style="fill:none;stroke:#A1A1A1;stroke-width:5.5665;stroke-miterlimit:10;" d="M290.37,235.042
			c16.238,15.87,39.474,24.306,62.111,22.551c9.625-0.747,19.261-3.321,27.324-8.63c8.064-5.309,14.433-13.539,16.334-23.004"/>
		<g>
			
				<ellipse transform="matrix(0.2274 -0.9738 0.9738 0.2274 106.3882 545.537)" style="fill:#A1A1A1;" cx="396.982" cy="205.725" rx="24.591" ry="24.591"/>
			<circle style="fill:#D9D9D9;" cx="396.982" cy="204.99" r="21.899"/>
			<circle style="fill:#A1A1A1;" cx="396.982" cy="197.65" r="16.271"/>
			<circle style="fill:#D9D9D9;" cx="396.982" cy="197.65" r="13.335"/>
		</g>
	</g>
	<g>
		<g>
			<path style="fill:#F2D4B2;" d="M344.136,406.977H179.167c-7.283,0-13.187-5.904-13.187-13.187V112.841
				c0-7.283,5.904-13.187,13.187-13.187h164.969c7.283,0,13.187,5.904,13.187,13.187V393.79
				C357.323,401.073,351.419,406.977,344.136,406.977z"/>
			<rect x="183.659" y="122.777" style="fill:#2F344A;" width="155.985" height="265.359"/>
		</g>
		<g>
			<path style="fill:#656EAF;" d="M318.184,265.55H205.119c-4.048,0-7.33-3.282-7.33-7.33V145.155c0-4.048,3.282-7.33,7.33-7.33
				h113.065c4.048,0,7.33,3.282,7.33,7.33V258.22C325.514,262.268,322.232,265.55,318.184,265.55z"/>
			<g>
				<path style="fill:none;stroke:#495390;stroke-width:5.0447;stroke-miterlimit:10;" d="M221.423,265.55h-17.471
					c-3.404,0-6.163-2.759-6.163-6.163v-17.786"/>
				<path style="fill:none;stroke:#495390;stroke-width:5.0447;stroke-miterlimit:10;" d="M325.514,244.927v14.46
					c0,3.404-2.759,6.163-6.163,6.163h-15.106"/>
				<path style="fill:none;stroke:#495390;stroke-width:5.0447;stroke-miterlimit:10;" d="M301.251,137.825h18.1
					c3.404,0,6.163,2.759,6.163,6.163v14.127"/>
				<path style="fill:none;stroke:#495390;stroke-width:5.0447;stroke-miterlimit:10;" d="M197.789,158.78v-14.792
					c0-3.403,2.759-6.163,6.163-6.163h15.809"/>
			</g>
			<g>
				<path style="fill:#FFFFFF;" d="M303.743,204.089c5.109-5.208,8.263-12.34,8.263-20.212c0-15.944-12.925-28.869-28.87-28.869
					c-8.463,0-16.075,3.642-21.355,9.443c-5.281-5.801-12.893-9.443-21.356-9.443c-15.944,0-28.87,12.925-28.87,28.869
					c0,8.276,3.488,15.733,9.067,20.996l41.224,48.145L303.743,204.089z"/>
				<polyline style="fill:none;stroke:#656EAF;stroke-width:1.6816;stroke-miterlimit:10;" points="209.782,198.081 
					233.117,198.081 237.056,173.911 241.713,198.081 245.926,198.081 248.365,205.177 249.696,197.859 314.691,197.859 				"/>
			</g>
		</g>
	</g>
	<g>
		<rect x="49.165" y="129.732" style="fill:#FFBC73;" width="129.56" height="103.868"/>
		<g>
			<g>
				<g>
					<path style="fill:#FFFFFF;" d="M81.575,151.692c0,3.885-3.149,7.035-7.035,7.035c-3.885,0-7.035-3.15-7.035-7.035
						c0-3.885,3.149-7.035,7.035-7.035C78.425,144.657,81.575,147.807,81.575,151.692z"/>
					<rect x="72.461" y="156.28" style="fill:#FFFFFF;" width="4.16" height="7.83"/>
					<path style="fill:#FFFFFF;" d="M76.018,187.477h-2.956c-2.72,0-4.945-2.225-4.945-4.945v-16.046
						c0-2.72,2.225-4.945,4.945-4.945h2.956c2.72,0,4.945,2.225,4.945,4.945v16.046C80.963,185.252,78.738,187.477,76.018,187.477z"
						/>
					<path style="fill:#FFFFFF;" d="M70.964,213.78h-0.27c-1.406,0-2.556-1.15-2.556-2.556v-28.653c0-1.406,1.15-2.557,2.556-2.557
						h0.27c1.406,0,2.556,1.15,2.556,2.557v28.653C73.521,212.63,72.37,213.78,70.964,213.78z"/>
					<path style="fill:#FFFFFF;" d="M78.427,213.78h-0.27c-1.406,0-2.557-1.15-2.557-2.556v-28.653c0-1.406,1.15-2.557,2.557-2.557
						h0.27c1.406,0,2.557,1.15,2.557,2.557v28.653C80.984,212.63,79.833,213.78,78.427,213.78z"/>
				</g>
				<g>
					<path style="fill:#FFFFFF;" d="M85.574,188.945h-0.27c-1.406,0-2.557-1.15-2.557-2.557v-22.047
						c0-1.406,1.151-2.557,2.557-2.557h0.27c1.406,0,2.557,1.15,2.557,2.557v22.047C88.131,187.795,86.98,188.945,85.574,188.945z"
						/>
					<path style="fill:#FFFFFF;" d="M63.726,188.945h-0.27c-1.406,0-2.556-1.15-2.556-2.557v-22.047c0-1.406,1.15-2.557,2.556-2.557
						h0.27c1.406,0,2.557,1.15,2.557,2.557v22.047C66.282,187.795,65.132,188.945,63.726,188.945z"/>
					<path style="fill:#FFFFFF;" d="M88.182,164.219v0.27c0,1.406-1.151,2.557-2.557,2.557H63.578c-1.406,0-2.556-1.15-2.556-2.557
						v-0.27c0-1.406,1.15-2.557,2.556-2.557h22.047C87.031,161.663,88.182,162.813,88.182,164.219z"/>
				</g>
			</g>
			<g>
				<g>
					<circle style="fill:#FFFFFF;" cx="106.686" cy="151.386" r="9.787"/>
					<rect x="90.414" y="151.019" style="fill:#FFFFFF;" width="9.42" height="1.346"/>
				</g>
				<g>
					<circle style="fill:#FFFFFF;" cx="106.686" cy="179.219" r="9.787"/>
					<rect x="90.414" y="178.852" style="fill:#FFFFFF;" width="9.42" height="1.346"/>
				</g>
				<g>
					<circle style="fill:#FFFFFF;" cx="106.686" cy="207.052" r="9.787"/>
					<rect x="90.414" y="206.685" style="fill:#FFFFFF;" width="9.42" height="1.346"/>
				</g>
			</g>
			<g>
				<rect x="126.179" y="141.375" style="fill:#FFFFFF;" width="43.492" height="1.468"/>
				<rect x="126.179" y="150.652" style="fill:#FFFFFF;" width="43.492" height="1.468"/>
				<rect x="126.179" y="159.93" style="fill:#FFFFFF;" width="43.492" height="1.468"/>
				<rect x="126.179" y="169.207" style="fill:#FFFFFF;" width="43.492" height="1.468"/>
				<rect x="126.179" y="178.485" style="fill:#FFFFFF;" width="43.492" height="1.468"/>
				<rect x="126.179" y="187.762" style="fill:#FFFFFF;" width="43.492" height="1.468"/>
				<rect x="126.179" y="197.04" style="fill:#FFFFFF;" width="43.492" height="1.468"/>
				<rect x="126.179" y="206.318" style="fill:#FFFFFF;" width="43.492" height="1.468"/>
				<rect x="126.179" y="215.595" style="fill:#FFFFFF;" width="43.492" height="1.468"/>
			</g>
		</g>
	</g>
	<g>
		<rect x="348.532" y="111.395" style="fill:#FF8685;" width="59.219" height="59.219"/>
		<polygon style="fill:#FFFFFF;" points="407.751,144.813 407.751,146.492 389.205,146.492 385.911,126.285 382.015,146.492 
			377.71,146.492 374.416,156.066 372.635,146.269 348.532,146.269 348.532,144.59 374.045,144.59 374.917,149.433 376.513,144.813 
			380.632,144.813 386.05,116.683 390.634,144.813 		"/>
	</g>
	<g>
		<rect x="211.785" y="32.55" style="fill:#A0C4AA;" width="79.767" height="79.767"/>
		<g>
			
				<rect x="232.094" y="42.215" style="fill:none;stroke:#FFFFFF;stroke-width:0.9278;stroke-miterlimit:10;" width="39.149" height="60.437"/>
			
				<line style="fill:none;stroke:#FFFFFF;stroke-width:0.9278;stroke-miterlimit:10;" x1="236.987" y1="51.758" x2="266.35" y2="51.758"/>
			
				<line style="fill:none;stroke:#FFFFFF;stroke-width:0.9278;stroke-miterlimit:10;" x1="236.987" y1="55.469" x2="266.35" y2="55.469"/>
			
				<line style="fill:none;stroke:#FFFFFF;stroke-width:0.9278;stroke-miterlimit:10;" x1="236.987" y1="59.18" x2="266.35" y2="59.18"/>
			
				<line style="fill:none;stroke:#FFFFFF;stroke-width:0.9278;stroke-miterlimit:10;" x1="236.987" y1="62.891" x2="266.35" y2="62.891"/>
			
				<line style="fill:none;stroke:#FFFFFF;stroke-width:0.9278;stroke-miterlimit:10;" x1="236.987" y1="66.602" x2="266.35" y2="66.602"/>
			
				<line style="fill:none;stroke:#FFFFFF;stroke-width:0.9278;stroke-miterlimit:10;" x1="236.987" y1="70.313" x2="266.35" y2="70.313"/>
			
				<line style="fill:none;stroke:#FFFFFF;stroke-width:0.9278;stroke-miterlimit:10;" x1="236.987" y1="74.024" x2="266.35" y2="74.024"/>
			
				<line style="fill:none;stroke:#FFFFFF;stroke-width:0.9278;stroke-miterlimit:10;" x1="236.987" y1="77.735" x2="266.35" y2="77.735"/>
			
				<line style="fill:none;stroke:#FFFFFF;stroke-width:0.9278;stroke-miterlimit:10;" x1="236.987" y1="81.446" x2="266.35" y2="81.446"/>
			
				<line style="fill:none;stroke:#FFFFFF;stroke-width:0.9278;stroke-miterlimit:10;" x1="236.987" y1="85.157" x2="266.35" y2="85.157"/>
			
				<line style="fill:none;stroke:#FFFFFF;stroke-width:0.9278;stroke-miterlimit:10;" x1="236.987" y1="88.868" x2="266.35" y2="88.868"/>
			
				<line style="fill:none;stroke:#FFFFFF;stroke-width:0.9278;stroke-miterlimit:10;" x1="236.987" y1="92.579" x2="266.35" y2="92.579"/>
		</g>
	</g>
	<g>
		<circle style="fill:#EC9F4D;" cx="148.751" cy="64.542" r="5.016"/>
		<circle style="fill:#EC9F4D;" cx="131.868" cy="85.83" r="5.016"/>
		<circle style="fill:#EC9F4D;" cx="150.219" cy="97.33" r="5.016"/>
		<circle style="fill:#EC9F4D;" cx="135.66" cy="116.415" r="5.016"/>
		
			<rect x="139.086" y="63.197" transform="matrix(0.7837 0.6212 -0.6212 0.7837 77.1862 -71.0175)" style="fill:#EC9F4D;" width="2.936" height="24.224"/>
		
			<rect x="141.533" y="95.25" transform="matrix(0.7837 0.6212 -0.6212 0.7837 97.6229 -65.6023)" style="fill:#EC9F4D;" width="2.936" height="24.224"/>
		
			<rect x="140.065" y="79.957" transform="matrix(0.5 -0.866 0.866 0.5 -8.9683 168.6048)" style="fill:#EC9F4D;" width="2.936" height="24.224"/>
	</g>
	<g>
		<path style="fill:#FF8685;" d="M351.276,87.465c-1.503,1.503-3.47,2.255-5.455,2.255c-1.967,0-3.952-0.752-5.446-2.255
			l-10.502-10.493l-10.261-10.261c-2.997-2.997-2.997-7.904,0-10.901c1.494-1.503,3.479-2.245,5.446-2.245
			c1.985,0,3.952,0.742,5.455,2.245l20.763,20.763C354.272,79.57,354.272,84.468,351.276,87.465z"/>
		<path style="fill:#A0C4AA;" d="M340.773,66.071l-10.901,10.901l-10.261-10.261c-2.997-2.997-2.997-7.904,0-10.901
			c1.494-1.503,3.479-2.245,5.446-2.245c1.985,0,3.952,0.742,5.455,2.245L340.773,66.071z"/>
	</g>
	<g>
		<path style="fill:#FF8685;" d="M87.162,387.446c1.503,1.503,3.47,2.255,5.455,2.255c1.967,0,3.952-0.752,5.446-2.255
			l10.502-10.493l10.261-10.261c2.997-2.997,2.997-7.904,0-10.901c-1.494-1.503-3.479-2.245-5.446-2.245
			c-1.985,0-3.952,0.742-5.455,2.245l-20.763,20.763C84.166,379.551,84.166,384.45,87.162,387.446z"/>
		<path style="fill:#A0C4AA;" d="M97.664,366.052l10.901,10.901l10.261-10.261c2.997-2.997,2.997-7.904,0-10.901
			c-1.494-1.503-3.479-2.245-5.446-2.245c-1.985,0-3.952,0.742-5.455,2.245L97.664,366.052z"/>
	</g>
	<g>
		
			<ellipse transform="matrix(0.2389 -0.9711 0.9711 0.2389 -164.3429 307.7295)" style="fill:#DBC0A1;" cx="114.128" cy="258.698" rx="15.17" ry="15.17"/>
		
			<ellipse transform="matrix(0.2389 -0.9711 0.9711 0.2389 -163.3483 307.2858)" style="fill:#F2D4B2;" cx="114.342" cy="257.842" rx="14.497" ry="14.497"/>
		<path style="fill:#DBC0A1;" d="M123.915,267.629l-19.208-18.963C114.354,248.666,121.017,258.43,123.915,267.629z"/>
	</g>
	<path style="fill:#ADB6DF;" d="M389.861,307.918c-8.076-1.72-15.222-7.779-17.718-15.65c-2.496-7.871,0.053-17.237,6.535-22.352
		c6.482-5.115,16.563-5.272,22.89,0.033c0.254-6.881,5.899-13.408,12.282-15.99c6.383-2.582,14.219-1.072,19.186,3.697
		c4.967,4.769,6.793,12.537,4.473,19.02c4.264-3.384,10.361-2.396,14.803,0.751c4.442,3.147,6.842,8.682,6.948,14.124
		c0.106,5.442-1.873,10.771-4.779,15.373L389.861,307.918z"/>
	<path style="fill:#ADB6DF;" d="M378.875,458.115c0,1.757-57.732,3.181-128.948,3.181c-71.216,0-128.948-1.424-128.948-3.181
		c0-1.757,57.732-3.181,128.948-3.181C321.143,454.934,378.875,456.358,378.875,458.115z"/>
	<g>
		<g>
			<path style="fill:#8F4425;" d="M239.61,287.237l3.69-4.036c-0.072-1.448-0.339-3.247-0.124-4.68
				c0.215-1.433,0.739-2.857,1.721-3.923c0.982-1.066,2.47-1.723,3.899-1.482l3.497-0.638c2.881-2.519,6.578-4.978,10.03-6.631
				c0.316-0.151,0.683-0.3,1.003-0.158c0.32,0.142,0.377,0.723,0.033,0.788c-2.035,2.487-4.12,4.959-6.611,6.989l9.381-6.867
				c0.557-0.438,1.371-0.381,1.737,0.226c0.378,0.179,0.41,1.103,0.003,1.199l-8.197,8.144c-0.126,0.246-0.008,0.255,0.21,0.426
				c0.218,0.171,0.557,0.162,0.765-0.019l8.019-6.056c0.313-0.233,0.687-0.157,0.885,0.179c0.198,0.336,0.146,0.775-0.033,1.121
				c-0.18,0.347-0.47,0.621-0.755,0.887c-2.286,2.131-4.636,4.193-7.046,6.182c-0.027,0.154,0.484,0.369,0.637,0.4
				s0.32-0.077,0.355-0.229c2.119-1.762,4.581-3.471,6.699-5.234c0.203-0.169,0.44-0.349,0.703-0.315
				c0.387,0.05,0.558,0.52,0.566,0.909c0.028,1.353-0.888,2.527-1.809,3.519c-1.916,2.064-4.066,3.909-6.396,5.49
				c-2.337,1.586-3.474,4.477-5.979,5.784c-2.504,1.307-5.426,1.798-8.22,1.381c0.182-0.079,0.364-0.159,0.546-0.238l-4.827,3.683
				L239.61,287.237z"/>
			<polygon style="fill:#D9D9D9;" points="244.568,281.011 259.672,254.952 273.278,263.946 255.867,288.39 			"/>
			<polygon style="fill:#2F344A;" points="247.693,280.268 260.45,258.26 269.979,264.56 255.267,285.214 			"/>
			<path style="fill:#8F4425;" d="M244.185,278.931c-0.57,1.304-0.547,2.853,0.06,4.14c0.607,1.287,1.789,2.289,3.158,2.677
				c0.595,0.169,0.484,0.398,1.094,0.293c0.834-0.143,1.442-0.879,1.808-1.641c1.152-2.396,0.613-5.5-1.398-7.24
				c1.705,0.775,3.41,1.55,5.115,2.325c0.474,0.215,1.066,0.42,1.477,0.1c0.264-0.205,0.353-0.577,0.303-0.908
				c-0.05-0.331-0.216-0.631-0.385-0.92c-0.681-1.163-1.478-2.29-2.559-3.095c-1.081-0.805-2.487-1.257-3.8-0.95
				c-0.464-0.169-1.288,0.046-1.515,0.484"/>
		</g>
		<g>
			
				<path style="fill:#FFFFFF;stroke:#D9D9D9;stroke-width:0.4825;stroke-linecap:round;stroke-linejoin:round;stroke-miterlimit:10;" d="
				M247.911,293.579l-8.944-9.77c-2.9,3.705-7.248,6.394-11.941,6.734c-5.938,0.43-11.649-2.9-15.556-7.392
				c-3.907-4.492-6.929-9.674-9.218-15.17c-0.384-0.922-0.887-1.802-1.095-2.78c-0.816-3.844-3.746-7.169-7.458-8.462
				c-2.777,1.226-4.557,4.285-4.142,7.292c1.35,9.786,4.604,19.161,10.16,27.33c5.556,8.169,14.649,14.583,24.525,14.356
				C233.386,305.507,240.534,298.987,247.911,293.579z"/>
			
				<line style="fill:none;stroke:#D9D9D9;stroke-width:0.4825;stroke-linecap:round;stroke-linejoin:round;stroke-miterlimit:10;" x1="241.916" y1="295.885" x2="237.073" y2="289.659"/>
		</g>
		<g>
			<path style="fill:#D9D9D9;" d="M166.229,447.355c-4.734-1.149-9.874-0.776-14.362,1.043c-4.488,1.818-8.295,5.07-10.637,9.085
				h25.753C167.277,453.952,166.87,450.846,166.229,447.355z"/>
			<path style="fill:#D9D9D9;" d="M179.389,447.355c4.734-1.149,9.874-0.776,14.362,1.043c4.488,1.818,8.295,5.07,10.637,9.085
				h-25.753C178.34,453.952,178.748,450.846,179.389,447.355z"/>
			<g>
				<path style="fill:#2E1F16;" d="M202.568,340.159c0.035,1.294,0,2.577-0.152,3.859c-0.478,4.104-2.215,8.231-5.514,10.714
					c-3.777,2.856-8.849,3.089-13.582,3.218c-6.587,0.175-13.559,0.257-19.26-3.031c-5.2-2.996-8.476-8.814-8.872-14.76
					c-0.152-2.472,0.175-4.966,1.073-7.286l21.311-0.548l24.04-0.618c0.035,0.21,0.07,0.408,0.093,0.618
					C202.113,334.924,202.498,337.547,202.568,340.159z"/>
				<polygon style="fill:#2E1F16;" points="156.822,344.773 157.283,447.162 166.969,447.393 179.191,357.918 				"/>
				<polygon style="fill:#2E1F16;" points="202.713,348.463 183.342,357.918 180.113,447.854 189.107,447.393 				"/>
				<path style="fill:#1C130D;" d="M203.029,340.851h-47.38c-0.152-2.471,0.175-4.966,1.073-7.286l21.312-0.548h24.133
					C202.574,335.616,202.959,338.239,203.029,340.851z"/>
			</g>
		</g>
		<g>
			<path style="fill:#8F4425;" d="M201.73,222.646c-0.367-0.286-0.522-0.759-0.474-1.222c0.843-8.167-0.225-22.256-0.619-25.93
				c-1.061-9.902-4.949-19.027-15.567-23.825c-4.067-1.838-8.539-2.671-12.999-2.505c-4.13,0.154-8.387,1.047-11.96,3.207
				c-8.333,5.037-9.81,15.642-9.445,24.537c0.308,7.502,3.056,31.46,7.181,36.898c6.075,8.009,16.468,11.727,26.505,12.297
				c5.783,0.329,17.824-10.177,19.657-15.169C205.043,228.117,204.088,224.487,201.73,222.646z"/>
			<ellipse style="fill:#FFFFFF;" cx="179.037" cy="212.867" rx="7.994" ry="9.301"/>
			<path style="fill:#4E3425;" d="M187.185,213.945c0,3.013-2.099,5.456-4.689,5.456c-2.59,0-4.689-2.443-4.689-5.456
				s2.099-5.455,4.689-5.455C185.086,208.49,187.185,210.932,187.185,213.945z"/>
			<ellipse style="fill:#FFFFFF;" cx="196.102" cy="212.713" rx="4.612" ry="8.379"/>
			<path style="fill:#4E3425;" d="M200.561,213.792c0,3.013-1.377,5.455-3.075,5.455c-1.698,0-3.075-2.442-3.075-5.455
				c0-3.013,1.377-5.455,3.075-5.455C199.184,208.336,200.561,210.779,200.561,213.792z"/>
			<path style="fill:#4E3425;" d="M196.256,232.701c-2.133,2.355-4.419,4.838-7.1,6.54c-2.693,1.691-5.841,2.786-9.012,2.6
				c-1.119-0.07-2.215-0.291-3.264-0.664c-2.577-0.898-4.896-2.611-6.575-4.78c-0.618-0.793-1.166-1.632-1.644-2.53
				c-1.364-2.53-2.145-5.386-2.308-8.243l1.247,0.292l24.016,5.689L196.256,232.701z"/>
			<path style="fill:#FFFFFF;" d="M191.616,231.605l-4.255,3.824c-7.415-0.781-14.515-4.22-19.761-9.513L191.616,231.605z"/>
			<path style="fill:#FF8685;" d="M178.536,238.822c-0.082,1.003-0.769,1.877-1.656,2.355c-2.577-0.898-4.896-2.611-6.575-4.78
				c-0.618-0.793-1.166-1.632-1.644-2.53c0.21-0.14,0.431-0.268,0.665-0.373c0.816-0.35,1.737-0.42,2.635-0.338
				c2.18,0.198,4.267,1.352,5.619,3.089C178.151,236.992,178.605,237.889,178.536,238.822z"/>
			<path style="fill:#4E3425;" d="M181.573,199.503c-4.081-0.238-8.189,0.006-12.213,0.725c0.964-1.425,1.936-2.689,3.404-3.585
				c1.503-0.917,3.31-1.507,5.028-1.123S181.707,197.748,181.573,199.503z"/>
			<path style="fill:#4E3425;" d="M198.478,197.437c-2.38-0.785-5.025-0.745-7.38,0.111c-0.523-1.297,0.212-2.985,1.404-3.716
				c1.192-0.731,2.792-0.629,3.985,0.099C197.681,194.66,198.158,196.076,198.478,197.437z"/>
			
				<path style="fill:#8F4425;stroke:#572916;stroke-width:0.5829;stroke-linecap:round;stroke-linejoin:round;stroke-miterlimit:10;" d="
				M182.07,224.28c2.082-2.212,4.69-3.927,7.547-4.96c1.928-0.698,4.208-1.047,5.929,0.068c1.371,0.888,2.092,2.601,1.983,4.231
				c-0.109,1.63-0.971,3.153-2.167,4.265"/>
			
				<path style="fill:#8F4425;stroke:#572916;stroke-width:0.5829;stroke-linecap:round;stroke-linejoin:round;stroke-miterlimit:10;" d="
				M190.048,225.179c0.144,0.598-0.642,1.301-1.756,1.57c-1.114,0.269-2.135,0.001-2.279-0.597c-0.144-0.598,0.642-1.301,1.756-1.57
				C188.884,224.313,189.904,224.581,190.048,225.179z"/>
			
				<path style="fill:#8F4425;stroke:#572916;stroke-width:0.5507;stroke-linecap:round;stroke-linejoin:round;stroke-miterlimit:10;" d="
				M194.667,225.314c0.25,0.525-0.339,1.329-1.316,1.795s-1.973,0.419-2.223-0.106c-0.25-0.525,0.339-1.329,1.316-1.795
				C193.421,224.742,194.417,224.79,194.667,225.314z"/>
			<path style="fill:#8F4425;" d="M154.281,231.97c-1.77-0.041-3.567-0.565-4.93-1.696c-1.363-1.13-2.234-2.91-2.047-4.671
				c0.187-1.761,1.546-3.399,3.292-3.691c0.979-0.164,1.986,0.079,2.9,0.463c1.833,0.77,3.38,2.156,4.423,3.842
				c0.642,1.038,2.398,4.418,0.775,5.06C157.353,231.807,155.712,232.003,154.281,231.97z"/>
			
				<path style="fill:none;stroke:#572916;stroke-width:0.4825;stroke-linecap:round;stroke-linejoin:round;stroke-miterlimit:10;" d="
				M149.992,226.839c0.297-0.485,0.923-0.649,1.49-0.678c2.169-0.111,4.334,1.279,5.135,3.298"/>
			
				<path style="fill:none;stroke:#572916;stroke-width:0.4825;stroke-linecap:round;stroke-linejoin:round;stroke-miterlimit:10;" d="
				M173.281,204.881c1.284-1.303,3.031-2.14,4.852-2.325c1.82-0.185,3.7,0.284,5.22,1.302"/>
			
				<path style="fill:none;stroke:#572916;stroke-width:0.4825;stroke-linecap:round;stroke-linejoin:round;stroke-miterlimit:10;" d="
				M193.007,204.933c0.677-0.846,1.722-1.388,2.805-1.452c1.082-0.064,2.184,0.349,2.957,1.109"/>
		</g>
		<polygon style="fill:#8F4425;" points="182.306,257.023 167.429,256.801 167.29,250.133 167.08,239.85 181.385,242.38 
			181.967,251.648 		"/>
		<g>
			<polygon style="fill:#FFFFFF;" points="182.765,257.234 166.978,256.999 166.83,249.922 182.407,251.53 			"/>
			<path style="fill:#FFFFFF;" d="M159.359,336.471l-0.231-79.098l8.994-4.612l14.067,0.461l10.147,4.151
				c10.134,24.877,14.073,51.839,12.271,78.64L159.359,336.471z"/>
			
				<polyline style="fill:none;stroke:#D9D9D9;stroke-width:0.4825;stroke-linecap:round;stroke-linejoin:round;stroke-miterlimit:10;" points="
				166.969,254.145 174.579,261.064 178.499,252.762 183.803,260.602 182.189,252.301 			"/>
			
				<path style="fill:none;stroke:#D9D9D9;stroke-width:0.4825;stroke-linecap:round;stroke-linejoin:round;stroke-miterlimit:10;" d="
				M185.807,335.086c0.573-20.913-0.943-41.883-4.518-62.496c-0.909-5.242-1.781-11.836-2.878-17.042"/>
		</g>
		<g>
			
				<polygon style="fill:#FFFFFF;stroke:#D9D9D9;stroke-width:0.4825;stroke-linecap:round;stroke-linejoin:round;stroke-miterlimit:10;" points="
				166.508,251.839 176.885,394.815 148.059,383.284 157.053,256.221 			"/>
			
				<path style="fill:#FFFFFF;stroke:#D9D9D9;stroke-width:0.4825;stroke-linecap:round;stroke-linejoin:round;stroke-miterlimit:10;" d="
				M208.478,386.282l-10.9,5.3c0.523-44.272,6.288-106.305-14.098-138.92l9.317,4.02c9.224,18.91,12.265,49.433,14.067,70.104
				C207.96,339.363,208.428,375.539,208.478,386.282z"/>
		</g>
		<g>
			<path style="fill:#8F4425;" d="M166.046,304.187l4.497-3.459c0.222-2.107,1.121-4.281,2.247-6.076
				c0.619-0.986-0.023-2.386,0.311-3.502c0.334-1.116,0.969-2.182,1.952-2.807c1.646-1.047,3.914-0.596,5.459,0.595l2.484-0.432
				l13.375-4.727c0.714,0,1.386,0.42,1.54,1.118c0.153,0.698-0.224,1.425-0.763,1.893s-1.222,0.732-1.883,1.002
				c-2.184,0.891-4.301,1.947-6.327,3.156c0.094-0.008,0.189-0.016,0.283-0.023c0.954-0.079,1.603,0.433,2.088,1.259
				c0.485,0.826,0.554,1.883,0.181,2.764c1.22,1.058,1.465,3.659,0.374,4.849c1.243,1.412,1.327,3.977,0.26,5.526
				c-1.067,1.549-3.235,2.232-4.998,1.575c-2.762,2.509-6.836,3.261-10.391,2.128l-10.342,6.578L166.046,304.187z"/>
			
				<path style="fill:#FFFFFF;stroke:#D9D9D9;stroke-width:0.4825;stroke-linecap:round;stroke-linejoin:round;stroke-miterlimit:10;" d="
				M157.271,256.003c4.638,4.499,5.701,15.976-0.449,22.279c-7.502,4.791-7.555,7.186-11.956,14.923
				c-1.623,2.852-3.025,6.158-2.214,9.338c0.828,3.247,3.932,5.6,7.235,6.162c3.303,0.561,6.72-0.439,9.622-2.114
				c2.902-1.675,5.939-3.799,8.382-6.093l0.971,17.571c-7.611,7.535-20.566,11.957-30.398,7.709
				c-6.311-2.727-10.518-9.179-11.739-15.945c-1.221-6.766,0.216-13.782,2.76-20.169c4.261-10.701,11.682-20.12,21.088-26.768
				C151.781,260.022,154.421,257.259,157.271,256.003z"/>
			
				<line style="fill:none;stroke:#D9D9D9;stroke-width:0.4825;stroke-linecap:round;stroke-linejoin:round;stroke-miterlimit:10;" x1="160.973" y1="322.866" x2="159.82" y2="308.338"/>
		</g>
	</g>
	<g>
		<path style="fill:#656EAF;" d="M353.378,451.412c-2.611-0.076-5.24-0.151-7.825,0.112c-2.585,0.263-5.154,0.888-7.138,2.066
			c-1.984,1.178-3.314,2.964-3.117,4.77l0.056-0.038l19.157,0.038C354.84,456.035,354.421,453.634,353.378,451.412z"/>
		<path style="fill:#656EAF;" d="M313.748,450.695c-2.379-1.077-4.776-2.16-7.263-2.915c-2.487-0.755-5.097-1.169-7.383-0.847
			c-2.286,0.322-4.2,1.457-4.715,3.199l0.066-0.014l17.66,7.424C313.314,455.524,313.853,453.147,313.748,450.695z"/>
		<g>
			<path style="fill:#FF8685;" d="M360.672,346.197l-43.815-2.614c0.476-7.676,2.472-16.213,4.568-23.613
				c1.243-4.388,3.021-9.032,6.889-11.448c3.259-2.035,7.505-2.05,11.106-0.709c3.601,1.341,6.632,3.894,9.221,6.734
				C356.273,322.922,360.833,334.868,360.672,346.197z"/>
			<path style="fill:#FF8685;" d="M353.795,452.61c2.62-11.926,3.841-24.745,4.373-36.956c0.22-5.052-0.078-10.496-3.703-13.94
				c0,0,8.609-56.728,5.688-61.955c-2.921-5.227-20.447,3.536-20.447,3.536l1.076,9.422l4.771,98.806L353.795,452.61z"/>
			<path style="fill:#FF8685;" d="M337.708,343.603L323.871,401.1c2.553,2.729,1.62,7.007,0.872,10.669
				c-2.561,12.547-6.65,27.636-10.832,39.74l-6.272-3.114l9.217-105.08L337.708,343.603z"/>
			
				<line style="fill:none;stroke:#B35E5D;stroke-width:0.2915;stroke-linecap:round;stroke-linejoin:round;stroke-miterlimit:10;" x1="344.78" y1="345.371" x2="330.405" y2="344.295"/>
		</g>
		<g>
			<path style="fill:#FFB7BA;" d="M312.597,278.273c-1.029,1.47-2.277,2.837-3.862,3.679c-1.585,0.843-3.55,1.1-5.186,0.363
				c-2.557-1.153-3.564-4.22-4.061-6.981c-1.025-5.691-1.06-11.517-0.755-17.29l-6.032,0.35c-0.581,4.563-0.896,8.944-0.827,13.544
				c0.069,4.6,0.811,9.251,2.768,13.414c1.45,3.084,3.734,5.993,6.946,7.135c2.058,0.731,4.335,0.671,6.459,0.159
				c3.039-0.733,5.875-2.41,7.828-4.851L312.597,278.273z"/>
			<path style="fill:#FFB7BA;" d="M296.77,258.794c1.433-0.056,2.796-0.69,3.712-1.794c1.817-2.189,0.896-9.387-1.843-15.325
				c-0.845-1.876-2.068-3.438-3.28-4.743c-0.208-0.224-0.511-0.34-0.814-0.304c-1.561,0.186-3.072,0.724-4.227,1.79
				c-1.033,0.954-1.794,2.197-2.186,3.546c-0.121,0.415,0.274,0.81,0.685,0.675c1.748-0.576,3.454-1.281,5.1-2.106
				c0.154,0.346,0.36,0.566,0.514,0.912c-0.835-0.186-1.867,0.068-2.442,0.702s-0.777,1.583-0.511,2.397
				c-0.896-0.148-1.895,0.234-2.381,1.001s-0.463,1.824,0.054,2.57c-0.477-0.294-1.435,0.401-1.747,0.865
				c-0.312,0.464-0.368,1.05-0.413,1.608c-0.078,0.943-0.155,1.897,0.002,2.83c0.157,0.933,0.574,1.857,1.322,2.437
				c0.747,0.58,1.86,0.736,2.65,0.216c-0.345,1.225,0.673,2.721,1.886,3.107C294.038,259.556,295.515,258.843,296.77,258.794z"/>
			
				<path style="fill:none;stroke:#BD6267;stroke-width:0.2915;stroke-linecap:round;stroke-linejoin:round;stroke-miterlimit:10;" d="
				M299.703,248.68c-0.505-1.326-1.899-2.206-3.316-2.28c-1.417-0.075-2.814,0.577-3.823,1.575
				c-1.008,0.998-1.657,2.315-2.047,3.679c0.264,0.548,1.292,0.439,1.865,0.236c0.573-0.202,1.036-0.628,1.563-0.932
				c0.527-0.304,1.215-0.476,1.727-0.147c-1.417,1.415-1.402,3.985-0.063,5.473"/>
			
				<path style="fill:none;stroke:#BD6267;stroke-width:0.2915;stroke-linecap:round;stroke-linejoin:round;stroke-miterlimit:10;" d="
				M292.822,246.858c-0.207,0.026-0.383-0.146-0.509-0.313c-0.395-0.522-0.663-1.138-0.777-1.782"/>
			
				<path style="fill:none;stroke:#BD6267;stroke-width:0.2915;stroke-linecap:round;stroke-linejoin:round;stroke-miterlimit:10;" d="
				M290.235,250.193c-0.514-0.606-0.851-1.36-0.959-2.148"/>
			
				<path style="fill:none;stroke:#BD6267;stroke-width:0.2915;stroke-linecap:round;stroke-linejoin:round;stroke-miterlimit:10;" d="
				M290.968,255.935c0.2-0.191,0.278-0.483,0.269-0.759c-0.009-0.277-0.096-0.544-0.182-0.807c-0.173-0.529-0.345-1.058-0.517-1.587
				"/>
			
				<path style="fill:none;stroke:#BD6267;stroke-width:0.2915;stroke-linecap:round;stroke-linejoin:round;stroke-miterlimit:10;" d="
				M294.478,242.569c0.359,0.748,0.719,1.496,1.078,2.243c0.091,0.189,0.183,0.382,0.213,0.59c0.029,0.208-0.014,0.437-0.162,0.586"
				/>
		</g>
		<g>
			<path style="fill:#FF8685;" d="M364.243,237.21c-0.177-12.257-2.108-24.433-4.036-36.569c-0.619-3.898-1.249-7.834-2.8-11.519
				c-2.067-4.911-5.831-9.304-10.839-12.045c-5.009-2.742-11.271-3.736-16.933-2.339c-6.7,1.653-12.015,6.442-15.222,11.95
				c-3.207,5.507-4.556,11.714-5.531,17.86c-1.602,10.1-2.453,19.9-2.229,30.098l33.668,2.78l0.231,2.059l21.446-2.059
				C362.461,237.425,363.781,237.24,364.243,237.21z"/>
			<path style="fill:#FFB7BA;" d="M345.837,224.892c2.363-5.766,4.74-11.583,5.879-17.709c1.139-6.126,0.964-12.665-1.641-18.326
				c-2.605-5.661-7.918-10.279-14.109-10.99c-7.433-0.854-14.725,4.14-18.085,10.826c-3.359,6.686-3.342,15.403-1.57,22.672
				c-1.578,1.757-2.865,3.847-3.69,6.06c1.786,8.108,7.554,15.239,15.11,18.68c5.626-2.011,11.277-5.032,15.938-8.77
				C344.457,226.702,345.454,225.827,345.837,224.892z"/>
			<path style="fill:#FFFFFF;" d="M338.476,207.315c0,4.033-2.409,7.302-5.381,7.302c-2.972,0-5.381-3.269-5.381-7.302
				c0-4.033,2.409-7.303,5.381-7.303C336.067,200.012,338.476,203.282,338.476,207.315z"/>
			
				<path style="fill:none;stroke:#4E3425;stroke-width:0.5829;stroke-linecap:round;stroke-linejoin:round;stroke-miterlimit:10;" d="
				M327.715,207.315c0-4.033,2.409-7.303,5.381-7.303c2.972,0,5.381,3.269,5.381,7.303"/>
			<path style="fill:#4E3425;" d="M335.229,210.073c0,2.319-1.385,4.199-3.094,4.199c-1.709,0-3.094-1.88-3.094-4.199
				s1.385-4.199,3.094-4.199C333.844,205.874,335.229,207.754,335.229,210.073z"/>
			<path style="fill:#FFFFFF;" d="M324.179,207.161c0,3.694-1.755,6.688-3.92,6.688s-3.92-2.994-3.92-6.688
				c0-3.693,1.755-6.688,3.92-6.688S324.179,203.468,324.179,207.161z"/>
			
				<path style="fill:#FFFFFF;stroke:#4E3425;stroke-width:0.5829;stroke-linecap:round;stroke-linejoin:round;stroke-miterlimit:10;" d="
				M316.338,207.161c0-3.693,1.755-6.688,3.92-6.688s3.92,2.994,3.92,6.688"/>
			<path style="fill:#4E3425;" d="M322.661,209.411c0,2.175-1.299,3.938-2.902,3.938c-1.603,0-2.902-1.763-2.902-3.938
				s1.299-3.938,2.902-3.938C321.362,205.473,322.661,207.236,322.661,209.411z"/>
			
				<path style="fill:none;stroke:#BD6267;stroke-width:0.2915;stroke-linecap:round;stroke-linejoin:round;stroke-miterlimit:10;" d="
				M318.02,200.577c0.419-0.595,1.075-1.019,1.79-1.155c0.715-0.136,1.481,0.016,2.089,0.416"/>
			<path style="fill:#4E3425;" d="M316.152,205.256c-0.404-0.271-0.892-0.553-1.349-0.387c-0.418,0.152-0.632,0.663-0.539,1.098
				s0.431,0.785,0.82,1c0.39,0.214,0.831,0.312,1.265,0.408C316.333,206.683,316.169,205.948,316.152,205.256z"/>
			<path style="fill:#4E3425;" d="M338.293,205.722c0.436-0.27,0.96-0.437,1.464-0.34c0.504,0.097,0.964,0.506,1.01,1.017
				c0.044,0.494-0.302,0.961-0.741,1.191c-0.439,0.23-0.954,0.265-1.449,0.252C338.542,207.098,338.327,206.466,338.293,205.722z"/>
			
				<path style="fill:none;stroke:#BD6267;stroke-width:0.2915;stroke-linecap:round;stroke-linejoin:round;stroke-miterlimit:10;" d="
				M330.238,199.885c0.853-0.662,1.955-0.995,3.032-0.916c1.077,0.079,2.119,0.569,2.866,1.348"/>
			<path style="fill:#4E3425;" d="M339.226,195.496l-10.838-3.459c1.548-1.335,3.927-1.367,5.758-0.457
				S337.88,193.958,339.226,195.496z"/>
			<path style="fill:#4E3425;" d="M321.988,192.499l-6.284,2.883c-0.019-0.019-0.038-0.038-0.058-0.058
				c0.417-1.287,1.298-2.376,2.525-2.943C319.4,191.812,320.737,191.983,321.988,192.499z"/>
			
				<path style="fill:none;stroke:#BD6267;stroke-width:0.2915;stroke-linecap:round;stroke-linejoin:round;stroke-miterlimit:10;" d="
				M325.89,217.795c-1.12,1.662-3.36,2.476-5.286,1.92c-1.926-0.556-3.387-2.439-3.448-4.443c1.461-0.373,3.06-1.008,4.475-1.528
				l1.855-2.393"/>
			
				<path style="fill:#BD6267;stroke:#BD6267;stroke-width:0.2915;stroke-linecap:round;stroke-linejoin:round;stroke-miterlimit:10;" d="
				M337.255,220.131c-2.085,1.532-4.192,3.077-6.567,4.103c-2.374,1.027-5.074,1.504-7.569,0.817c0.971-0.774,2.25-0.979,3.476-1.18
				c1.225-0.201,2.473-0.249,3.695-0.465C332.748,222.973,335.387,221.784,337.255,220.131z"/>
			
				<path style="fill:none;stroke:#BD6267;stroke-width:0.2915;stroke-linecap:round;stroke-linejoin:round;stroke-miterlimit:10;" d="
				M336.69,219.141c0.992-0.051,1.998,0.337,2.698,1.041"/>
			
				<path style="fill:none;stroke:#BD6267;stroke-width:0.2915;stroke-linecap:round;stroke-linejoin:round;stroke-miterlimit:10;" d="
				M325.748,226.698c0.149,0.552,0.53,1.036,1.032,1.31c0.501,0.274,1.116,0.333,1.66,0.16"/>
			<path style="fill:#FFB7BA;" d="M350.535,215.374c1.315-0.378,3.087-0.551,4.135,0.149c1.189,0.794,1.849,2.469,1.615,3.849
				c-0.239,1.41-1.297,2.629-2.629,3.148c-1.686,0.656-3.654,0.99-5.448,0.753c-2.385-0.315-3.199-2.226-2.093-4.326
				c0.787-1.495,2.119-2.695,3.687-3.324C350.021,215.535,350.269,215.45,350.535,215.374z"/>
			<polygon style="fill:#FFB7BA;" points="331.443,230.721 329.022,245.826 335.133,245.365 341.013,228.3 			"/>
			<path style="fill:#FF8685;" d="M327.536,182.146c4.161-0.688,8.59,0.443,11.911,3.042c3.322,2.598,5.486,6.625,5.82,10.829
				l-3.102,42.892l9.109-1.499c0.043-10.141,1.341-20.299,1.384-30.44c0.019-4.465,1.461-8.631,0.692-13.029
				c-0.77-4.398-2.642-9.049-5.537-12.448c-4.942-5.803-13.604-8.104-20.775-5.518c-7.171,2.586-12.37,9.886-12.47,17.508
				C317.164,188.089,321.633,183.122,327.536,182.146z"/>
			<path style="fill:#FF8685;" d="M348.932,195.839c-8.792-1.932-16.648-7.775-21.028-15.64
				C337.232,181.571,345.305,187.136,348.932,195.839z"/>
			<path style="fill:#FF8685;" d="M333.633,184.276c-7.24-0.383-14.58,2.896-19.125,8.545c0.946-2.809,1.905-5.817,3.94-7.973
				c2.034-2.156,4.77-3.729,7.72-4.018C329.117,180.541,331.801,181.945,333.633,184.276z"/>
			
				<line style="fill:none;stroke:#BD6267;stroke-width:0.2915;stroke-linecap:round;stroke-linejoin:round;stroke-miterlimit:10;" x1="351.275" y1="235.91" x2="353.12" y2="202.011"/>
			
				<path style="fill:none;stroke:#BD6267;stroke-width:0.2915;stroke-linecap:round;stroke-linejoin:round;stroke-miterlimit:10;" d="
				M332.244,182.76c2.557,4.118,6.8,7.153,11.523,8.244"/>
			
				<path style="fill:none;stroke:#BD6267;stroke-width:0.2915;stroke-linecap:round;stroke-linejoin:round;stroke-miterlimit:10;" d="
				M328.814,182.296c0.262-2.812,1.758-5.487,4.017-7.183"/>
			
				<path style="fill:none;stroke:#BD6267;stroke-width:0.2915;stroke-linecap:round;stroke-linejoin:round;stroke-miterlimit:10;" d="
				M332.17,178.854c4.977,0.588,10.328,1.934,13.369,5.917c2.034,2.664,2.704,6.107,3.113,9.434
				c1.628,13.244,0.056,26.649-1.515,39.9"/>
			
				<path style="fill:none;stroke:#BD6267;stroke-width:0.2915;stroke-linecap:round;stroke-linejoin:round;stroke-miterlimit:10;" d="
				M344.782,178.695c4.788,1.39,8.409,5.493,10.433,10.049c2.023,4.557,2.681,9.582,3.316,14.527
				c1.316,10.245,2.633,20.491,3.949,30.736"/>
			
				<path style="fill:none;stroke:#BD6267;stroke-width:0.2915;stroke-linecap:round;stroke-linejoin:round;stroke-miterlimit:10;" d="
				M310.481,232.68c-0.852-10.664-0.256-21.443,1.767-31.948"/>
			
				<path style="fill:none;stroke:#BD6267;stroke-width:0.2915;stroke-linecap:round;stroke-linejoin:round;stroke-miterlimit:10;" d="
				M314.936,233.144c-0.115-2.268-0.231-4.535-0.346-6.803"/>
		</g>
		<g>
			<path style="fill:#A0C4AA;" d="M356.637,326.134c-4.337,4.36-8.982,7.279-14.811,9.249c-6.575,2.227-19.645,2.685-24.104-1.351
				c-0.336-0.304-0.25-1.144-0.25-1.575c0-0.35,0.133-0.128,0.308-0.443c0.221-0.42,0.658,0.063,0.576-0.404l-7.635-44.551
				c-0.035-0.268-0.128-0.513-0.268-0.746c-3.206-5.305-5.888-10.772-8.464-16.403c-0.28-0.629-0.256-1.376,0.093-1.982
				c5.188-8.954,12.416-16.718,20.985-22.536c0.175-0.128,0.385-0.221,0.595-0.292l1.341-0.408l4.535-1.387
				c0.268-0.093,0.548-0.117,0.839-0.093l4.978,0.49c0.315,0.035,0.606,0.128,0.874,0.292l3.684,2.157l6.179,3.602
				c1.038,0.618,1.387,1.97,0.734,2.984c-6.96,10.866-9.863,24.285-7.951,37.05c1.9,12.754,16.377,33.118,16.838,33.81
				C356.464,323.252,357.523,325.26,356.637,326.134z"/>
			<path style="fill:#FFB7BA;" d="M339.914,246.15c-7.135,3.031-13.827,7.065-19.271,12.591c0.431-4.92,1.924-9.746,4.36-14.048
				l4.535-1.387c0.268-0.093,0.548-0.117,0.839-0.093l4.978,0.49c0.315,0.035,0.606,0.128,0.874,0.292L339.914,246.15z"/>
			
				<path style="fill:none;stroke:#819E89;stroke-width:0.2915;stroke-linecap:round;stroke-linejoin:round;stroke-miterlimit:10;" d="
				M320.748,247.424c-2.348,4.04-3.914,8.533-4.584,13.157c0.999,1.444,3.173,2.232,4.778,1.52l19.688-12.586"/>
			
				<path style="fill:none;stroke:#819E89;stroke-width:0.2915;stroke-linecap:round;stroke-linejoin:round;stroke-miterlimit:10;" d="
				M318.378,332.35c5.639,2.892,12.425,2.838,18.544,1.189c6.119-1.649,11.724-4.766,17.259-7.854"/>
		</g>
		<g>
			<path style="fill:#D9D9D9;" d="M286.215,270.61L287,245.856c0.03-0.944-0.586-1.788-1.494-2.048l-9.268-2.648
				c-1.397-0.399-2.757,0.733-2.618,2.179l2.459,25.572c0.08,0.835,0.653,1.536,1.457,1.776c1.532,0.458,4.093,1.239,6.021,1.829
				C284.855,272.915,286.171,271.968,286.215,270.61z"/>
			<path style="fill:#FFFFFF;" d="M282.9,256.857c0,1.932-1.187,3.497-2.652,3.497c-1.465,0-2.652-1.566-2.652-3.497
				c0-1.932,1.187-3.497,2.652-3.497C281.713,253.359,282.9,254.925,282.9,256.857z"/>
		</g>
		<g>
			<path style="fill:#FFB7BA;" d="M283.246,283.069c0.115,0.692,3.805,15.796,16.258,22.369c12.453,6.572,25.367-1.96,33.438-9.685
				s13.375-21.677,13.375-21.677l-7.033-4.266c0,0-9.686,18.448-17.411,23.176c-7.725,4.727-16.488,6.226-21.677,3.459
				c-5.189-2.767-12.799-17.18-12.799-17.18L283.246,283.069z"/>
			<path style="fill:#FFB7BA;" d="M287.709,281.619c2.395-3.995,3.378-8.818,2.737-13.431c-0.124-0.89-0.173-2.168-0.773-2.837
				c-0.6-0.67-2.386-1.656-3.285-1.652c-0.037,0.654,0.008,1.797-0.029,2.45l-12.107-5.909c-0.947-0.277-2.294,0.429-2.349,1.414
				c-0.043,0.78,0.46,1.476,0.967,2.071c1.039,1.217,2.203,2.327,3.467,3.307c-0.825,0.559-1.411,1.478-1.521,2.468
				c-0.109,0.99,0.235,2.021,0.918,2.747c-0.943,1.136-0.577,3.407,0.698,4.154c-0.711,0.113-1.655,0.734-1.864,1.423
				c-0.208,0.689,0.009,1.488,0.537,1.977c2.446,2.261,5.531,4.088,8.831,4.547C285.484,284.562,286.906,282.958,287.709,281.619z"
				/>
		</g>
		<g>
			<path style="fill:#94B59D;" d="M344.587,284.683l-15.22-8.994c3.852-5.895,7.154-12.264,9.584-18.873
				c0.696-1.894,1.361-3.863,2.693-5.379c1.331-1.516,3.538-2.47,5.408-1.712c1.958,0.794,2.828,3.066,3.232,5.14
				c0.963,4.945,0.49,10.084-0.692,14.981C348.411,274.743,346.455,280.004,344.587,284.683z"/>
			
				<line style="fill:none;stroke:#819E89;stroke-width:0.2915;stroke-linecap:round;stroke-linejoin:round;stroke-miterlimit:10;" x1="331.789" y1="274.882" x2="344.165" y2="282.569"/>
		</g>
	</g>
</g>
</svg>
